<?xml version="1.0" standalone="no"?>
<!DOCTYPE svg PUBLIC "-//W3C//DTD SVG 20010904//EN"
 "http://www.w3.org/TR/2001/REC-SVG-20010904/DTD/svg10.dtd">
<svg version="1.0" xmlns="http://www.w3.org/2000/svg"
 width="595.000000pt" height="270.000000pt" viewBox="0 0 595.000000 270.000000"
 preserveAspectRatio="xMidYMid meet">

<g transform="translate(0.000000,270.000000) scale(0.100000,-0.100000)"
fill="#000000" stroke="none">
<path d="M845 1761 c-7 -12 1 -17 43 -26 l32 -7 0 -278 c0 -318 7 -354 82
-436 60 -65 123 -88 243 -89 90 0 106 3 158 29 38 18 69 43 88 69 53 74 59
113 59 416 l0 276 40 17 c65 27 50 38 -55 38 -73 0 -95 -3 -95 -13 0 -8 18
-20 40 -27 l40 -13 0 -276 c0 -286 -5 -325 -43 -381 -36 -54 -88 -75 -188 -75
-75 0 -90 3 -122 25 -20 13 -46 43 -59 65 -22 39 -23 48 -26 347 l-3 307 35 7
c21 3 36 12 36 20 0 11 -29 14 -149 14 -83 0 -152 -4 -156 -9z"/>
<path d="M1660 1753 c0 -10 9 -29 20 -43 19 -24 20 -43 20 -377 l0 -351 -35
-12 c-19 -6 -35 -18 -35 -26 0 -11 20 -14 95 -14 107 0 119 10 50 40 l-45 19
0 323 c0 224 3 319 10 312 6 -6 122 -163 258 -350 l248 -339 42 -3 42 -3 0
390 0 391 40 20 c22 11 40 25 40 30 0 6 -40 10 -95 10 -73 0 -95 -3 -95 -13 0
-8 18 -20 40 -27 l40 -13 0 -290 0 -289 -227 315 -228 316 -92 0 c-82 1 -93
-1 -93 -16z"/>
<path d="M2450 1753 c0 -10 9 -29 20 -43 19 -24 20 -43 20 -377 l0 -351 -35
-12 c-19 -6 -35 -18 -35 -26 0 -11 20 -14 95 -14 107 0 119 10 50 40 l-45 19
0 323 c0 224 3 319 10 312 6 -6 122 -163 258 -350 l248 -339 42 -3 42 -3 0
390 0 391 40 20 c22 11 40 25 40 30 0 6 -40 10 -95 10 -73 0 -95 -3 -95 -13 0
-8 18 -20 40 -27 l40 -13 0 -290 0 -289 -227 315 -228 316 -92 0 c-82 1 -93
-1 -93 -16z"/>
<path d="M3551 1748 c-4 -13 -68 -189 -142 -392 l-134 -369 -37 -15 c-21 -8
-38 -21 -38 -29 0 -10 21 -13 90 -13 98 0 112 10 55 37 -20 9 -34 22 -33 28 2
5 14 43 28 83 l24 72 165 0 166 0 32 -90 32 -91 -29 -6 c-17 -3 -30 -12 -30
-19 0 -11 29 -14 150 -14 154 0 180 7 117 33 -32 14 -36 23 -177 411 l-145
396 -43 0 c-35 0 -44 -4 -51 -22z m53 -351 c38 -105 71 -198 74 -204 3 -10
-31 -13 -148 -13 -117 0 -151 3 -148 13 54 154 144 397 148 397 3 0 36 -87 74
-193z"/>
<path d="M4036 1718 c-19 -154 -19 -148 -2 -148 9 0 25 19 37 42 47 93 96 128
174 128 l35 0 0 -385 0 -385 -40 -6 c-24 -4 -40 -12 -40 -20 0 -11 32 -14 165
-14 135 0 165 3 165 14 0 9 -15 17 -40 21 l-40 7 0 384 0 384 28 0 c79 0 134
-39 172 -120 16 -34 29 -50 42 -50 14 0 18 5 14 18 -2 9 -8 54 -11 100 l-7 82
-323 0 -323 0 -6 -52z"/>
<path d="M4732 1758 c2 -6 22 -17 44 -23 l39 -11 0 -374 0 -375 -42 -9 c-24
-6 -43 -16 -43 -23 0 -10 37 -13 171 -13 132 0 170 3 167 13 -3 6 -23 16 -46
21 l-42 9 0 377 0 377 42 9 c23 5 43 15 46 22 3 9 -35 12 -168 12 -127 0 -171
-3 -168 -12z"/>
</g>
</svg>
